 <svg xmlns="http://www.w3.org/2000/svg" width="42" height="42" viewBox="0 0 42 42" fill="none">
                            <path fill-rule="evenodd" clip-rule="evenodd" d="M28.1357 6.57954C28.5616 5.45872 29.8154 4.89535 30.9362 5.32122C34.3689 6.62549 36.8142 9.94646 36.8142 13.844C36.8142 18.878 32.7333 22.9589 27.6993 22.9589C26.5003 22.9589 25.5283 21.9869 25.5283 20.7879C25.5283 19.5889 26.5003 18.6169 27.6993 18.6169C30.3353 18.6169 32.4722 16.48 32.4722 13.844C32.4722 11.8083 31.1968 10.0651 29.394 9.38007C28.2732 8.9542 27.7098 7.70036 28.1357 6.57954Z" fill="#EA8939"/>
                            <path fill-rule="evenodd" clip-rule="evenodd" d="M16.0154 6.52801C13.0574 6.52801 10.6593 8.92601 10.6593 11.8841C10.6593 14.8422 13.0574 17.2402 16.0154 17.2402C18.9735 17.2402 21.3715 14.8422 21.3715 11.8841C21.3715 8.92601 18.9735 6.52801 16.0154 6.52801ZM6.31738 11.8841C6.31738 6.52804 10.6593 2.18604 16.0154 2.18604C21.3716 2.18604 25.7135 6.52804 25.7135 11.8841C25.7135 17.2402 21.3716 21.5822 16.0154 21.5822C10.6593 21.5822 6.31738 17.2402 6.31738 11.8841Z" fill="#EA8939"/>
                            <path fill-rule="evenodd" clip-rule="evenodd" d="M16.0049 28.676C12.1807 28.676 8.63118 29.8238 5.67401 31.7934C5.1281 32.157 4.95268 32.5001 4.89366 32.7159C4.83129 32.9439 4.84463 33.2292 5.00239 33.558C5.32857 34.238 6.25786 34.9974 7.69863 34.9974H24.3112C25.7519 34.9974 26.6812 34.238 27.0074 33.558C27.1652 33.2292 27.1785 32.9439 27.1161 32.7159C27.0571 32.5001 26.8817 32.157 26.3358 31.7934C23.3786 29.8238 19.8291 28.676 16.0049 28.676ZM3.26711 28.1796C6.91505 25.75 11.2979 24.334 16.0049 24.334C20.7119 24.334 25.0947 25.75 28.7427 28.1796C30.0377 29.0421 30.9322 30.2099 31.3043 31.5706C31.6731 32.919 31.4787 34.276 30.9222 35.4361C29.8198 37.734 27.2941 39.3394 24.3112 39.3394H7.69863C4.71565 39.3394 2.18996 37.734 1.08758 35.4361C0.531056 34.276 0.336715 32.919 0.705475 31.5706C1.07758 30.2099 1.97209 29.0421 3.26711 28.1796Z" fill="#EA8939"/>
                            <path fill-rule="evenodd" clip-rule="evenodd" d="M32.2127 28.0528C32.6911 26.9534 33.9702 26.45 35.0696 26.9285C36.2324 27.4345 37.3411 28.0406 38.3847 28.7357C39.6084 29.5508 40.4615 30.66 40.8169 31.9596C41.1689 33.247 40.9827 34.5403 40.4538 35.6427C39.4068 37.8253 37.0149 39.3391 34.2033 39.3391H23.6739C22.4749 39.3391 21.5029 38.3671 21.5029 37.1681C21.5029 35.9691 22.4749 34.9971 23.6739 34.9971H34.2033C35.4727 34.9971 36.2681 34.3293 36.539 33.7647C36.6691 33.4935 36.6744 33.2719 36.6287 33.1049C36.5864 32.9502 36.4524 32.6656 35.9778 32.3495C35.1457 31.7953 34.2625 31.3125 33.337 30.9098C32.2376 30.4313 31.7342 29.1522 32.2127 28.0528Z" fill="#EA8939"/>
                          </svg>