<svg xmlns="http://www.w3.org/2000/svg" width="42" height="42" viewBox="0 0 42 42" fill="none">
                            <path fill-rule="evenodd" clip-rule="evenodd" d="M21.3018 7.9929C21.0131 7.65802 20.4943 7.65803 20.2056 7.9929L4.30656 26.4358C3.52368 27.344 2.15285 27.4455 1.24471 26.6626C0.336578 25.8798 0.235031 24.5089 1.0179 23.6008L16.9169 5.15787C18.9377 2.81375 22.5697 2.81375 24.5905 5.15787L40.4895 23.6008C41.2724 24.5089 41.1708 25.8798 40.2627 26.6626C39.3546 27.4455 37.9837 27.344 37.2009 26.4358L21.3018 7.9929Z" fill="#EA8939"/>
                            <path fill-rule="evenodd" clip-rule="evenodd" d="M21.3001 7.95709C21.0113 7.62065 20.4906 7.62065 20.2018 7.95709L10.2877 19.5074L9.78609 23.0862C9.28387 26.669 9.30847 30.3061 9.8591 33.8818C9.99098 34.7382 10.7279 35.3703 11.5944 35.3703H29.9075C30.774 35.3703 31.5109 34.7382 31.6428 33.8818C32.1934 30.3061 32.218 26.669 31.7158 23.0862L31.2141 19.5074L21.3001 7.95709ZM16.9071 5.12911C18.9286 2.77402 22.5733 2.77402 24.5948 5.12912L34.9232 17.1622C35.1937 17.4773 35.3681 17.8635 35.4258 18.2748L36.0157 22.4834C36.5767 26.4856 36.5492 30.5484 35.9342 34.5426C35.4761 37.5169 32.9168 39.7123 29.9075 39.7123H11.5944C8.58508 39.7123 6.02574 37.5169 5.56772 34.5426C4.95264 30.5484 4.92516 26.4856 5.48616 22.4834L6.07611 18.2748C6.13376 17.8635 6.30819 17.4773 6.57871 17.1622L16.9071 5.12911Z" fill="#EA8939"/>
                            <path fill-rule="evenodd" clip-rule="evenodd" d="M13.7539 28.7415C13.7539 24.8766 16.8871 21.7434 20.752 21.7434C24.617 21.7434 27.7501 24.8766 27.7501 28.7415V37.541C27.7501 38.74 26.7781 39.712 25.5791 39.712H15.9249C14.7259 39.712 13.7539 38.74 13.7539 37.541V28.7415ZM20.752 26.0854C19.2851 26.0854 18.0959 27.2746 18.0959 28.7415V35.37H23.4082V28.7415C23.4082 27.2746 22.2189 26.0854 20.752 26.0854Z" fill="#EA8939"/>
                          </svg>