<svg xmlns="http://www.w3.org/2000/svg" width="42" height="42" viewBox="0 0 42 42" fill="none">
      <g clip-path="url(#clip0_1_150)">
        <path fill-rule="evenodd" clip-rule="evenodd" d="M20.7566 4.84221C11.964 4.84221 4.8361 11.9701 4.8361 20.7628C4.8361 29.5555 11.964 36.6834 20.7566 36.6834C29.5492 36.6834 36.6771 29.5555 36.6771 20.7628C36.6771 11.9701 29.5492 4.84221 20.7566 4.84221ZM0.494141 20.7628C0.494141 9.5721 9.56594 0.500244 20.7566 0.500244C31.9473 0.500244 41.0191 9.5721 41.0191 20.7628C41.0191 31.9535 31.9473 41.0253 20.7566 41.0253C9.56594 41.0253 0.494141 31.9535 0.494141 20.7628Z" fill="#EA8939"></path>
        <path fill-rule="evenodd" clip-rule="evenodd" d="M20.7559 11.3905C21.9549 11.3905 22.9269 12.3625 22.9269 13.5615V19.8988L26.633 23.6049C27.4808 24.4528 27.4808 25.8274 26.633 26.6752C25.7852 27.523 24.4106 27.523 23.5628 26.6752L19.2208 22.3332C18.8137 21.9261 18.585 21.3739 18.585 20.7981V13.5615C18.585 12.3625 19.5569 11.3905 20.7559 11.3905Z" fill="#EA8939"></path>
      </g>
      <defs>
        <clipPath id="clip0_1_150">
          <rect width="42" height="41" fill="white" transform="translate(0 0.5)"></rect>
        </clipPath>
      </defs>
  </svg>