 <svg xmlns="http://www.w3.org/2000/svg" width="42" height="42" viewBox="0 0 42 42" fill="none">
                            <path fill-rule="evenodd" clip-rule="evenodd" d="M9.17574 17.4673C12.5949 14.8171 16.9212 13.7397 20.7628 13.7397C24.6042 13.7397 28.9306 14.8171 32.3498 17.4672C35.8483 20.1788 38.2325 24.4184 38.2325 30.3095C38.2325 32.7654 37.4538 34.7707 36.0628 36.3077C34.7145 37.7974 32.9298 38.6952 31.1476 39.2543C27.6987 40.3364 23.6018 40.3359 20.8919 40.3356H20.6336C17.9237 40.3359 13.8268 40.3364 10.3779 39.2543C8.59576 38.6952 6.81107 37.7975 5.46275 36.3078C4.07169 34.7708 3.29297 32.7655 3.29297 30.3097C3.29297 24.4185 5.67716 20.179 9.17574 17.4673ZM11.838 20.9021C9.42639 22.7713 7.6387 25.7302 7.6387 30.3097C7.6387 31.7804 8.07677 32.7199 8.68475 33.3916C9.33545 34.1105 10.332 34.6853 11.6788 35.1079C14.4325 35.9718 17.9079 35.9899 20.7628 35.9899C23.6176 35.9899 27.093 35.9718 29.8467 35.1078C31.1935 34.6853 32.19 34.1105 32.8407 33.3916C33.4487 32.7198 33.8868 31.7803 33.8868 30.3095C33.8868 25.7301 32.0991 22.7712 29.6875 20.902C27.1965 18.9713 23.8744 18.0855 20.7628 18.0855C17.6511 18.0855 14.329 18.9713 11.838 20.9021Z" fill="#EA8939"/>
                            <path fill-rule="evenodd" clip-rule="evenodd" d="M20.7628 11.1327C13.6242 11.1327 8.50344 14.5576 7.00228 16.0588C6.15373 16.9074 4.77795 16.9074 3.92939 16.0588C3.08083 15.2103 3.08083 13.8345 3.92938 12.9859C6.13657 10.7787 12.3262 6.78699 20.7628 6.78699C29.1993 6.78699 35.3889 10.7787 37.5961 12.9859C38.4447 13.8345 38.4447 15.2103 37.5961 16.0588C36.7476 16.9074 35.3718 16.9074 34.5232 16.0588C33.0221 14.5576 27.9013 11.1327 20.7628 11.1327Z" fill="#EA8939"/>
                            <path fill-rule="evenodd" clip-rule="evenodd" d="M15.2002 1.22424C16.4002 1.22424 17.3731 2.19707 17.3731 3.39711C17.3731 3.97649 17.5648 4.89393 18.0761 5.60409C18.5076 6.20344 19.2459 6.78679 20.7627 6.78679C22.2795 6.78679 23.0178 6.20344 23.4494 5.60409C23.9607 4.89393 24.1524 3.97649 24.1524 3.39711C24.1524 2.19707 25.1252 1.22424 26.3252 1.22424C27.5253 1.22424 28.4981 2.19707 28.4981 3.39711C28.4981 4.6719 28.1335 6.53573 26.9761 8.14331C25.7389 9.86167 23.6959 11.1325 20.7627 11.1325C17.8295 11.1325 15.7866 9.86167 14.5494 8.14331C13.3919 6.53573 13.0273 4.6719 13.0273 3.39711C13.0273 2.19707 14.0002 1.22424 15.2002 1.22424Z" fill="#EA8939"/>
                          </svg>