<svg xmlns="http://www.w3.org/2000/svg" width="44" height="45" viewBox="0 0 44 45" fill="none">
                            <g clip-path="url(#clip0_1_128)">
                              <path fill-rule="evenodd" clip-rule="evenodd" d="M21.2568 7.84245C17.4599 7.84245 14.382 10.9204 14.382 14.7172C14.382 18.5141 17.4599 21.592 21.2568 21.592C25.0536 21.592 28.1315 18.5141 28.1315 14.7172C28.1315 10.9204 25.0536 7.84245 21.2568 7.84245ZM10.04 14.7172C10.04 8.52241 15.0619 3.50049 21.2568 3.50049C27.4516 3.50049 32.4735 8.52241 32.4735 14.7172C32.4735 20.9121 27.4516 25.934 21.2568 25.934C15.0619 25.934 10.04 20.9121 10.04 14.7172Z" fill="#EA8939"/>
                              <path fill-rule="evenodd" clip-rule="evenodd" d="M21.255 31.4773C15.7563 31.4773 10.6507 33.1321 6.40081 35.9703C5.80493 36.3683 5.57626 36.7696 5.4907 37.0643C5.40174 37.3708 5.41976 37.7263 5.58641 38.1034C5.92409 38.8676 6.88703 39.683 8.41299 39.683H34.0969C35.6229 39.683 36.5858 38.8676 36.9235 38.1034C37.0902 37.7263 37.1082 37.3708 37.0192 37.0643C36.9337 36.7696 36.705 36.3683 36.1091 35.9703C31.8593 33.1321 26.7536 31.4773 21.255 31.4773ZM3.98937 32.3596C8.93086 29.0594 14.8715 27.1354 21.255 27.1354C27.6384 27.1354 33.5791 29.0594 38.5205 32.3596C39.8639 33.2567 40.7856 34.4641 41.1891 35.8539C41.5891 37.232 41.4347 38.6369 40.8951 39.8582C39.8201 42.291 37.2349 44.025 34.0969 44.025H8.41299C5.27504 44.025 2.68978 42.291 1.61486 39.8583C1.07521 38.6369 0.920834 37.232 1.32086 35.8539C1.72429 34.4641 2.646 33.2567 3.98937 32.3596Z" fill="#EA8939"/>
                            </g>
                            <defs>
                              <clipPath id="clip0_1_128">
                                <rect width="44" height="44" fill="white" transform="translate(0 0.5)"/>
                              </clipPath>
                            </defs>
                          </svg>