<svg xmlns="http://www.w3.org/2000/svg" width="42" height="42" viewBox="0 0 42 42" fill="none">
    <g clip-path="url(#clip0_1_98)">
        <path fill-rule="evenodd" clip-rule="evenodd" d="M20.7554 4.99968C12.0497 4.99968 4.99235 12.0571 4.99235 20.7629C4.99235 29.4686 12.0497 36.526 20.7554 36.526C29.4611 36.526 36.5185 29.4686 36.5185 20.7629C36.5185 12.0571 29.4611 4.99968 20.7554 4.99968ZM0.650391 20.7629C0.650391 9.65909 9.65171 0.657715 20.7554 0.657715C31.8591 0.657715 40.8605 9.65909 40.8605 20.7629C40.8605 31.8666 31.8591 40.868 20.7554 40.868C9.65171 40.868 0.650391 31.8666 0.650391 20.7629Z" fill="#EA8939"/>
        <path fill-rule="evenodd" clip-rule="evenodd" d="M0.650391 20.7629C0.650391 9.65909 9.65171 0.657715 20.7554 0.657715C21.805 0.657715 22.8371 0.738321 23.8457 0.894048C24.9042 1.05749 25.6854 1.96852 25.6854 3.03961V9.03666C25.6854 10.893 24.9479 12.6734 23.6353 13.986C22.3227 15.2987 20.5423 16.0361 18.686 16.0361C17.9812 16.0361 17.3053 16.3161 16.8069 16.8144C16.3085 17.3128 16.0286 17.9887 16.0286 18.6935V22.8322C16.0286 24.6885 15.2911 26.4689 13.9785 27.7815C12.6659 29.0942 10.8855 29.8316 9.02918 29.8316H4.19585C3.31965 29.8316 2.52935 29.3049 2.19211 28.4962C1.19818 26.1128 0.650391 23.499 0.650391 20.7629ZM20.7554 4.99968C12.0497 4.99968 4.99235 12.0571 4.99235 20.7629C4.99235 22.4122 5.24497 23.9994 5.71269 25.4896H9.02918C9.73397 25.4896 10.4099 25.2096 10.9083 24.7113C11.4066 24.2129 11.6866 23.537 11.6866 22.8322V18.6935C11.6866 16.8372 12.424 15.0569 13.7367 13.7442C15.0493 12.4316 16.8296 11.6941 18.686 11.6941C19.3908 11.6941 20.0667 11.4142 20.5651 10.9158C21.0634 10.4174 21.3434 9.74146 21.3434 9.03666V5.01041C21.1484 5.00328 20.9524 4.99968 20.7554 4.99968Z" fill="#EA8939"/>
        <path fill-rule="evenodd" clip-rule="evenodd" d="M28.3422 21.5542C27.6374 21.5542 26.9614 21.8341 26.4631 22.3325C25.9647 22.8309 25.6847 23.5068 25.6847 24.2116C25.6847 24.9164 25.9647 25.5923 26.4631 26.0907C26.9614 26.5891 27.6374 26.869 28.3422 26.869C29.8326 26.869 31.2621 27.4611 32.316 28.5151C32.7865 28.9855 33.1649 29.5308 33.4397 30.123C35.1622 27.7931 36.2565 24.9735 36.4769 21.9117C35.7467 21.6802 34.9835 21.559 34.2126 21.5542H28.3422ZM23.3928 19.2623C24.7055 17.9496 26.4858 17.2122 28.3422 17.2122H34.231C36.1304 17.2227 38.0002 17.6842 39.6864 18.5587C40.3957 18.9265 40.8456 19.6542 40.8577 20.453C40.8586 20.5165 40.8593 20.5799 40.8597 20.6434V20.656V20.882C40.8225 27.2657 37.8081 32.9446 33.1436 36.5984C32.7615 36.8977 32.2902 37.0603 31.8049 37.0603H31.791C30.592 37.0603 29.62 36.0883 29.62 34.8893V32.4889C29.62 32.15 29.4854 31.8249 29.2457 31.5853C29.0061 31.3456 28.6811 31.211 28.3422 31.211C26.4858 31.211 24.7055 30.4736 23.3928 29.1609C22.0802 27.8483 21.3428 26.0679 21.3428 24.2116C21.3428 22.3552 22.0802 20.5749 23.3928 19.2623Z" fill="#EA8939"/>
    </g>
    <defs>
        <clipPath id="clip0_1_98">
        <rect width="42" height="41" fill="white" transform="translate(0 0.5)"/>
        </clipPath>
    </defs>
    </svg>